New Track
Track id: MTrk, TrackLength: 2723
Cursor Pos: 0x16
Program Name: Super Mario Bros. Theme
Cursor Pos: 0x32
Unrecognised MetaEvent: 0x0A
Cursor Pos: 0x36
Unknown Status: 0x00
Cursor Pos: 0x37
Unknown Status: 0x00
Cursor Pos: 0x38
Unknown Status: 0x00
Cursor Pos: 0x39
Unknown Status: 0x00
Cursor Pos: 0x3A
Unknown Status: 0x00
Cursor Pos: 0x3B
Unknown Status: 0x00
Cursor Pos: 0x3C
Unknown Status: 0x00
Cursor Pos: 0x3D
Unknown Status: 0x00
Cursor Pos: 0x3E
Unknown Status: 0x00
Cursor Pos: 0x3F
Unknown Status: 0x00
Cursor Pos: 0x40
Unknown Status: 0x00
Cursor Pos: 0x41
Unknown Status: 0x00
Cursor Pos: 0x42
Unknown Status: 0x00
Cursor Pos: 0x43
Unknown Status: 0x00
Cursor Pos: 0x44
Unknown Status: 0x00
Cursor Pos: 0x45
Unknown Status: 0x00
Cursor Pos: 0x46
Unknown Status: 0x00
Cursor Pos: 0x47
Unknown Status: 0x00
Cursor Pos: 0x48
Unknown Status: 0x00
Cursor Pos: 0x49
Unknown Status: 0x00
Cursor Pos: 0x4A
Unknown Status: 0x00
Cursor Pos: 0x4B
Unknown Status: 0x00
Cursor Pos: 0x4C
Unknown Status: 0x00
Cursor Pos: 0x4D
Unknown Status: 0x00
Cursor Pos: 0x4E
Unknown Status: 0x00
Cursor Pos: 0x4F
Unknown Status: 0x00
Cursor Pos: 0x50
Unknown Status: 0x00
Cursor Pos: 0x51
Unknown Status: 0x00
Cursor Pos: 0x52
Time Signature: 2/32
ClocksPerTick: 24
32per24Clocks: 8
Cursor Pos: 0x5A
Key Signature: 0
Minor Key: 0
Cursor Pos: 0x60
VoiceProgramChange: 40
Cursor Pos: 0x63
Note ON - ID: 76, Velocity: 80, Δt: 0
Cursor Pos: 0x67
Note ON - ID: 72, Velocity: 80, Δt: 0
Cursor Pos: 0x6A
VoiceControlChange: 7 100
Cursor Pos: 0x6E
VoiceControlChange: 10 64
Cursor Pos: 0x71
VoiceControlChange: 91 30
Cursor Pos: 0x74
VoiceControlChange: 93 30
Cursor Pos: 0x77
Note OFF/ON - ID: 76, Velocity: 0, Δt: 111
Cursor Pos: 0x7B
Note OFF/ON - ID: 72, Velocity: 0, Δt: 0
Cursor Pos: 0x7E
Note ON - ID: 76, Velocity: 80, Δt: 1
Cursor Pos: 0x81
Note ON - ID: 72, Velocity: 80, Δt: 0
Cursor Pos: 0x84
Note OFF/ON - ID: 76, Velocity: 0, Δt: 239
Cursor Pos: 0x88
Note OFF/ON - ID: 72, Velocity: 0, Δt: 0
Cursor Pos: 0x8B
Note ON - ID: 76, Velocity: 80, Δt: 1
Cursor Pos: 0x8E
Note ON - ID: 72, Velocity: 80, Δt: 0
Cursor Pos: 0x91
Note OFF/ON - ID: 76, Velocity: 0, Δt: 119
Cursor Pos: 0x94
Note OFF/ON - ID: 72, Velocity: 0, Δt: 0
Cursor Pos: 0x97
Note ON - ID: 72, Velocity: 80, Δt: 121
Cursor Pos: 0x9A
Note OFF/ON - ID: 72, Velocity: 0, Δt: 119
Cursor Pos: 0x9D
Note ON - ID: 76, Velocity: 80, Δt: 1
Cursor Pos: 0xA0
Note OFF/ON - ID: 76, Velocity: 0, Δt: 119
Cursor Pos: 0xA3
Note ON - ID: 79, Velocity: 80, Δt: 121
Cursor Pos: 0xA6
Note ON - ID: 71, Velocity: 80, Δt: 0
Cursor Pos: 0xA9
Note OFF/ON - ID: 79, Velocity: 0, Δt: 239
Cursor Pos: 0xAD
Note OFF/ON - ID: 71, Velocity: 0, Δt: 0
Cursor Pos: 0xB0
Note ON - ID: 67, Velocity: 80, Δt: 241
Cursor Pos: 0xB4
Note ON - ID: 59, Velocity: 80, Δt: 0
Cursor Pos: 0xB7
Note OFF/ON - ID: 67, Velocity: 0, Δt: 239
Cursor Pos: 0xBB
Note OFF/ON - ID: 59, Velocity: 0, Δt: 0
Cursor Pos: 0xBE
Note ON - ID: 72, Velocity: 80, Δt: 241
Cursor Pos: 0xC2
Note OFF/ON - ID: 72, Velocity: 0, Δt: 239
Cursor Pos: 0xC6
Note ON - ID: 67, Velocity: 80, Δt: 121
Cursor Pos: 0xC9
Note OFF/ON - ID: 67, Velocity: 0, Δt: 239
Cursor Pos: 0xCD
Note ON - ID: 64, Velocity: 80, Δt: 121
Cursor Pos: 0xD0
Note OFF/ON - ID: 64, Velocity: 0, Δt: 239
Cursor Pos: 0xD4
Note ON - ID: 69, Velocity: 80, Δt: 121
Cursor Pos: 0xD7
Note OFF/ON - ID: 69, Velocity: 0, Δt: 239
Cursor Pos: 0xDB
Note ON - ID: 71, Velocity: 80, Δt: 1
Cursor Pos: 0xDE
Note OFF/ON - ID: 71, Velocity: 0, Δt: 239
Cursor Pos: 0xE2
Note ON - ID: 70, Velocity: 80, Δt: 1
Cursor Pos: 0xE5
Note OFF/ON - ID: 70, Velocity: 0, Δt: 119
Cursor Pos: 0xE8
Note ON - ID: 69, Velocity: 80, Δt: 1
Cursor Pos: 0xEB
Note OFF/ON - ID: 69, Velocity: 0, Δt: 119
Cursor Pos: 0xEE
Note ON - ID: 67, Velocity: 80, Δt: 121
Cursor Pos: 0xF1
Note OFF/ON - ID: 67, Velocity: 0, Δt: 159
Cursor Pos: 0xF5
Note ON - ID: 76, Velocity: 80, Δt: 1
Cursor Pos: 0xF8
Note OFF/ON - ID: 76, Velocity: 0, Δt: 159
Cursor Pos: 0xFC
Note ON - ID: 79, Velocity: 80, Δt: 1
Cursor Pos: 0xFF
Note OFF/ON - ID: 79, Velocity: 0, Δt: 159
Cursor Pos: 0x103
Note ON - ID: 81, Velocity: 80, Δt: 1
Cursor Pos: 0x106
Note OFF/ON - ID: 81, Velocity: 0, Δt: 239
Cursor Pos: 0x10A
Note ON - ID: 77, Velocity: 80, Δt: 1
Cursor Pos: 0x10D
Note OFF/ON - ID: 77, Velocity: 0, Δt: 119
Cursor Pos: 0x110
Note ON - ID: 79, Velocity: 80, Δt: 1
Cursor Pos: 0x113
Note OFF/ON - ID: 79, Velocity: 0, Δt: 119
Cursor Pos: 0x116
Note ON - ID: 76, Velocity: 80, Δt: 121
Cursor Pos: 0x119
Note OFF/ON - ID: 76, Velocity: 0, Δt: 239
Cursor Pos: 0x11D
Note ON - ID: 72, Velocity: 80, Δt: 1
Cursor Pos: 0x120
Note OFF/ON - ID: 72, Velocity: 0, Δt: 119
Cursor Pos: 0x123
Note ON - ID: 74, Velocity: 80, Δt: 1
Cursor Pos: 0x126
Note OFF/ON - ID: 74, Velocity: 0, Δt: 119
Cursor Pos: 0x129
Note ON - ID: 71, Velocity: 80, Δt: 1
Cursor Pos: 0x12C
Note OFF/ON - ID: 71, Velocity: 0, Δt: 119
Cursor Pos: 0x12F
Note ON - ID: 72, Velocity: 80, Δt: 241
Cursor Pos: 0x133
Note OFF/ON - ID: 72, Velocity: 0, Δt: 239
Cursor Pos: 0x137
Note ON - ID: 67, Velocity: 80, Δt: 121
Cursor Pos: 0x13A
Note OFF/ON - ID: 67, Velocity: 0, Δt: 239
Cursor Pos: 0x13E
Note ON - ID: 64, Velocity: 80, Δt: 121
Cursor Pos: 0x141
Note OFF/ON - ID: 64, Velocity: 0, Δt: 239
Cursor Pos: 0x145
Note ON - ID: 69, Velocity: 80, Δt: 121
Cursor Pos: 0x148
Note OFF/ON - ID: 69, Velocity: 0, Δt: 239
Cursor Pos: 0x14C
Note ON - ID: 71, Velocity: 80, Δt: 1
Cursor Pos: 0x14F
Note OFF/ON - ID: 71, Velocity: 0, Δt: 239
Cursor Pos: 0x153
Note ON - ID: 70, Velocity: 80, Δt: 1
Cursor Pos: 0x156
Note OFF/ON - ID: 70, Velocity: 0, Δt: 119
Cursor Pos: 0x159
Note ON - ID: 69, Velocity: 80, Δt: 1
Cursor Pos: 0x15C
Note OFF/ON - ID: 69, Velocity: 0, Δt: 119
Cursor Pos: 0x15F
Note ON - ID: 67, Velocity: 80, Δt: 121
Cursor Pos: 0x162
Note OFF/ON - ID: 67, Velocity: 0, Δt: 159
Cursor Pos: 0x166
Note ON - ID: 76, Velocity: 80, Δt: 1
Cursor Pos: 0x169
Note OFF/ON - ID: 76, Velocity: 0, Δt: 159
Cursor Pos: 0x16D
Note ON - ID: 79, Velocity: 80, Δt: 1
Cursor Pos: 0x170
Note OFF/ON - ID: 79, Velocity: 0, Δt: 159
Cursor Pos: 0x174
Note ON - ID: 81, Velocity: 80, Δt: 1
Cursor Pos: 0x177
Note OFF/ON - ID: 81, Velocity: 0, Δt: 239
Cursor Pos: 0x17B
Note ON - ID: 77, Velocity: 80, Δt: 1
Cursor Pos: 0x17E
Note OFF/ON - ID: 77, Velocity: 0, Δt: 119
Cursor Pos: 0x181
Note ON - ID: 79, Velocity: 80, Δt: 1
Cursor Pos: 0x184
Note OFF/ON - ID: 79, Velocity: 0, Δt: 119
Cursor Pos: 0x187
Note ON - ID: 76, Velocity: 80, Δt: 121
Cursor Pos: 0x18A
Note OFF/ON - ID: 76, Velocity: 0, Δt: 239
Cursor Pos: 0x18E
Note ON - ID: 72, Velocity: 80, Δt: 1
Cursor Pos: 0x191
Note OFF/ON - ID: 72, Velocity: 0, Δt: 119
Cursor Pos: 0x194
Note ON - ID: 74, Velocity: 80, Δt: 1
Cursor Pos: 0x197
Note OFF/ON - ID: 74, Velocity: 0, Δt: 119
Cursor Pos: 0x19A
Note ON - ID: 71, Velocity: 80, Δt: 1
Cursor Pos: 0x19D
Note OFF/ON - ID: 71, Velocity: 0, Δt: 119
Cursor Pos: 0x1A0
Note ON - ID: 60, Velocity: 80, Δt: 241
Cursor Pos: 0x1A4
Note OFF/ON - ID: 60, Velocity: 0, Δt: 119
Cursor Pos: 0x1A7
Note ON - ID: 79, Velocity: 80, Δt: 121
Cursor Pos: 0x1AA
Note OFF/ON - ID: 79, Velocity: 0, Δt: 119
Cursor Pos: 0x1AD
Note ON - ID: 78, Velocity: 80, Δt: 1
Cursor Pos: 0x1B0
Note OFF/ON - ID: 78, Velocity: 0, Δt: 119
Cursor Pos: 0x1B3
Note ON - ID: 77, Velocity: 80, Δt: 1
Cursor Pos: 0x1B6
Note OFF/ON - ID: 77, Velocity: 0, Δt: 119
Cursor Pos: 0x1B9
Note ON - ID: 75, Velocity: 80, Δt: 1
Cursor Pos: 0x1BC
Note OFF/ON - ID: 75, Velocity: 0, Δt: 119
Cursor Pos: 0x1BF
Note ON - ID: 76, Velocity: 80, Δt: 121
Cursor Pos: 0x1C2
Note ON - ID: 72, Velocity: 80, Δt: 0
Cursor Pos: 0x1C5
Note OFF/ON - ID: 76, Velocity: 0, Δt: 119
Cursor Pos: 0x1C8
Note OFF/ON - ID: 72, Velocity: 0, Δt: 0
Cursor Pos: 0x1CB
Note ON - ID: 68, Velocity: 80, Δt: 121
Cursor Pos: 0x1CE
Note OFF/ON - ID: 68, Velocity: 0, Δt: 119
Cursor Pos: 0x1D1
Note ON - ID: 69, Velocity: 80, Δt: 1
Cursor Pos: 0x1D4
Note OFF/ON - ID: 69, Velocity: 0, Δt: 119
Cursor Pos: 0x1D7
Note ON - ID: 72, Velocity: 80, Δt: 1
Cursor Pos: 0x1DA
Note OFF/ON - ID: 72, Velocity: 0, Δt: 119
Cursor Pos: 0x1DD
Note ON - ID: 69, Velocity: 80, Δt: 121
Cursor Pos: 0x1E0
Note OFF/ON - ID: 69, Velocity: 0, Δt: 119
Cursor Pos: 0x1E3
Note ON - ID: 72, Velocity: 80, Δt: 1
Cursor Pos: 0x1E6
Note OFF/ON - ID: 72, Velocity: 0, Δt: 119
Cursor Pos: 0x1E9
Note ON - ID: 74, Velocity: 80, Δt: 1
Cursor Pos: 0x1EC
Note OFF/ON - ID: 74, Velocity: 0, Δt: 119
Cursor Pos: 0x1EF
Note ON - ID: 60, Velocity: 80, Δt: 1
Cursor Pos: 0x1F2
Note OFF/ON - ID: 60, Velocity: 0, Δt: 119
Cursor Pos: 0x1F5
Note ON - ID: 79, Velocity: 80, Δt: 121
Cursor Pos: 0x1F8
Note OFF/ON - ID: 79, Velocity: 0, Δt: 119
Cursor Pos: 0x1FB
Note ON - ID: 78, Velocity: 80, Δt: 1
Cursor Pos: 0x1FE
Note OFF/ON - ID: 78, Velocity: 0, Δt: 119
Cursor Pos: 0x201
Note ON - ID: 77, Velocity: 80, Δt: 1
Cursor Pos: 0x204
Note OFF/ON - ID: 77, Velocity: 0, Δt: 119
Cursor Pos: 0x207
Note ON - ID: 75, Velocity: 80, Δt: 1
Cursor Pos: 0x20A
Note OFF/ON - ID: 75, Velocity: 0, Δt: 119
Cursor Pos: 0x20D
Note ON - ID: 76, Velocity: 80, Δt: 121
Cursor Pos: 0x210
Note ON - ID: 72, Velocity: 80, Δt: 0
Cursor Pos: 0x213
Note OFF/ON - ID: 76, Velocity: 0, Δt: 119
Cursor Pos: 0x216
Note OFF/ON - ID: 72, Velocity: 0, Δt: 0
Cursor Pos: 0x219
Note ON - ID: 84, Velocity: 80, Δt: 121
Cursor Pos: 0x21C
Note ON - ID: 76, Velocity: 80, Δt: 0
Cursor Pos: 0x21F
Note OFF/ON - ID: 84, Velocity: 0, Δt: 119
Cursor Pos: 0x222
Note OFF/ON - ID: 76, Velocity: 0, Δt: 0
Cursor Pos: 0x225
Note ON - ID: 84, Velocity: 80, Δt: 121
Cursor Pos: 0x228
Note ON - ID: 76, Velocity: 80, Δt: 0
Cursor Pos: 0x22B
Note OFF/ON - ID: 84, Velocity: 0, Δt: 119
Cursor Pos: 0x22E
Note OFF/ON - ID: 76, Velocity: 0, Δt: 0
Cursor Pos: 0x231
Note ON - ID: 84, Velocity: 80, Δt: 1
Cursor Pos: 0x234
Note ON - ID: 76, Velocity: 80, Δt: 0
Cursor Pos: 0x237
Note OFF/ON - ID: 84, Velocity: 0, Δt: 119
Cursor Pos: 0x23A
Note OFF/ON - ID: 76, Velocity: 0, Δt: 0
Cursor Pos: 0x23D
Note ON - ID: 67, Velocity: 80, Δt: 121
Cursor Pos: 0x240
Note OFF/ON - ID: 67, Velocity: 0, Δt: 119
Cursor Pos: 0x243
Note ON - ID: 60, Velocity: 80, Δt: 121
Cursor Pos: 0x246
Note OFF/ON - ID: 60, Velocity: 0, Δt: 119
Cursor Pos: 0x249
Note ON - ID: 79, Velocity: 80, Δt: 121
Cursor Pos: 0x24C
Note OFF/ON - ID: 79, Velocity: 0, Δt: 119
Cursor Pos: 0x24F
Note ON - ID: 78, Velocity: 80, Δt: 1
Cursor Pos: 0x252
Note OFF/ON - ID: 78, Velocity: 0, Δt: 119
Cursor Pos: 0x255
Note ON - ID: 77, Velocity: 80, Δt: 1
Cursor Pos: 0x258
Note OFF/ON - ID: 77, Velocity: 0, Δt: 119
Cursor Pos: 0x25B
Note ON - ID: 75, Velocity: 80, Δt: 1
Cursor Pos: 0x25E
Note OFF/ON - ID: 75, Velocity: 0, Δt: 119
Cursor Pos: 0x261
Note ON - ID: 76, Velocity: 80, Δt: 121
Cursor Pos: 0x264
Note ON - ID: 72, Velocity: 80, Δt: 0
Cursor Pos: 0x267
Note OFF/ON - ID: 76, Velocity: 0, Δt: 119
Cursor Pos: 0x26A
Note OFF/ON - ID: 72, Velocity: 0, Δt: 0
Cursor Pos: 0x26D
Note ON - ID: 68, Velocity: 80, Δt: 121
Cursor Pos: 0x270
Note OFF/ON - ID: 68, Velocity: 0, Δt: 119
Cursor Pos: 0x273
Note ON - ID: 69, Velocity: 80, Δt: 1
Cursor Pos: 0x276
Note OFF/ON - ID: 69, Velocity: 0, Δt: 119
Cursor Pos: 0x279
Note ON - ID: 72, Velocity: 80, Δt: 1
Cursor Pos: 0x27C
Note OFF/ON - ID: 72, Velocity: 0, Δt: 119
Cursor Pos: 0x27F
Note ON - ID: 69, Velocity: 80, Δt: 121
Cursor Pos: 0x282
Note OFF/ON - ID: 69, Velocity: 0, Δt: 119
Cursor Pos: 0x285
Note ON - ID: 72, Velocity: 80, Δt: 1
Cursor Pos: 0x288
Note OFF/ON - ID: 72, Velocity: 0, Δt: 119
Cursor Pos: 0x28B
Note ON - ID: 74, Velocity: 80, Δt: 1
Cursor Pos: 0x28E
Note OFF/ON - ID: 74, Velocity: 0, Δt: 119
Cursor Pos: 0x291
Note ON - ID: 75, Velocity: 80, Δt: 241
Cursor Pos: 0x295
Note ON - ID: 68, Velocity: 80, Δt: 0
Cursor Pos: 0x298
Note OFF/ON - ID: 75, Velocity: 0, Δt: 119
Cursor Pos: 0x29B
Note OFF/ON - ID: 68, Velocity: 0, Δt: 0
Cursor Pos: 0x29E
Note ON - ID: 74, Velocity: 80, Δt: 241
Cursor Pos: 0x2A2
Note ON - ID: 67, Velocity: 80, Δt: 0
Cursor Pos: 0x2A5
Note OFF/ON - ID: 74, Velocity: 0, Δt: 119
Cursor Pos: 0x2A8
Note OFF/ON - ID: 67, Velocity: 0, Δt: 0
Cursor Pos: 0x2AB
Note ON - ID: 72, Velocity: 80, Δt: 241
Cursor Pos: 0x2AF
Note ON - ID: 64, Velocity: 80, Δt: 0
Cursor Pos: 0x2B2
Note OFF/ON - ID: 72, Velocity: 0, Δt: 119
Cursor Pos: 0x2B5
Note OFF/ON - ID: 64, Velocity: 0, Δt: 0
Cursor Pos: 0x2B8
Note ON - ID: 67, Velocity: 80, Δt: 241
Cursor Pos: 0x2BC
Note OFF/ON - ID: 67, Velocity: 0, Δt: 119
Cursor Pos: 0x2BF
Note ON - ID: 67, Velocity: 80, Δt: 1
Cursor Pos: 0x2C2
Note OFF/ON - ID: 67, Velocity: 0, Δt: 119
Cursor Pos: 0x2C5
Note ON - ID: 60, Velocity: 80, Δt: 121
Cursor Pos: 0x2C8
Note OFF/ON - ID: 60, Velocity: 0, Δt: 119
Cursor Pos: 0x2CB
Note ON - ID: 60, Velocity: 80, Δt: 121
Cursor Pos: 0x2CE
Note OFF/ON - ID: 60, Velocity: 0, Δt: 119
Cursor Pos: 0x2D1
Note ON - ID: 79, Velocity: 80, Δt: 121
Cursor Pos: 0x2D4
Note OFF/ON - ID: 79, Velocity: 0, Δt: 119
Cursor Pos: 0x2D7
Note ON - ID: 78, Velocity: 80, Δt: 1
Cursor Pos: 0x2DA
Note OFF/ON - ID: 78, Velocity: 0, Δt: 119
Cursor Pos: 0x2DD
Note ON - ID: 77, Velocity: 80, Δt: 1
Cursor Pos: 0x2E0
Note OFF/ON - ID: 77, Velocity: 0, Δt: 119
Cursor Pos: 0x2E3
Note ON - ID: 75, Velocity: 80, Δt: 1
Cursor Pos: 0x2E6
Note OFF/ON - ID: 75, Velocity: 0, Δt: 119
Cursor Pos: 0x2E9
Note ON - ID: 76, Velocity: 80, Δt: 121
Cursor Pos: 0x2EC
Note ON - ID: 72, Velocity: 80, Δt: 0
Cursor Pos: 0x2EF
Note OFF/ON - ID: 76, Velocity: 0, Δt: 119
Cursor Pos: 0x2F2
Note OFF/ON - ID: 72, Velocity: 0, Δt: 0
Cursor Pos: 0x2F5
Note ON - ID: 68, Velocity: 80, Δt: 121
Cursor Pos: 0x2F8
Note OFF/ON - ID: 68, Velocity: 0, Δt: 119
Cursor Pos: 0x2FB
Note ON - ID: 69, Velocity: 80, Δt: 1
Cursor Pos: 0x2FE
Note OFF/ON - ID: 69, Velocity: 0, Δt: 119
Cursor Pos: 0x301
Note ON - ID: 72, Velocity: 80, Δt: 1
Cursor Pos: 0x304
Note OFF/ON - ID: 72, Velocity: 0, Δt: 119
Cursor Pos: 0x307
Note ON - ID: 69, Velocity: 80, Δt: 121
Cursor Pos: 0x30A
Note OFF/ON - ID: 69, Velocity: 0, Δt: 119
Cursor Pos: 0x30D
Note ON - ID: 72, Velocity: 80, Δt: 1
Cursor Pos: 0x310
Note OFF/ON - ID: 72, Velocity: 0, Δt: 119
Cursor Pos: 0x313
Note ON - ID: 74, Velocity: 80, Δt: 1
Cursor Pos: 0x316
Note OFF/ON - ID: 74, Velocity: 0, Δt: 119
Cursor Pos: 0x319
Note ON - ID: 60, Velocity: 80, Δt: 1
Cursor Pos: 0x31C
Note OFF/ON - ID: 60, Velocity: 0, Δt: 119
Cursor Pos: 0x31F
Note ON - ID: 79, Velocity: 80, Δt: 121
Cursor Pos: 0x322
Note OFF/ON - ID: 79, Velocity: 0, Δt: 119
Cursor Pos: 0x325
Note ON - ID: 78, Velocity: 80, Δt: 1
Cursor Pos: 0x328
Note OFF/ON - ID: 78, Velocity: 0, Δt: 119
Cursor Pos: 0x32B
Note ON - ID: 77, Velocity: 80, Δt: 1
Cursor Pos: 0x32E
Note OFF/ON - ID: 77, Velocity: 0, Δt: 119
Cursor Pos: 0x331
Note ON - ID: 75, Velocity: 80, Δt: 1
Cursor Pos: 0x334
Note OFF/ON - ID: 75, Velocity: 0, Δt: 119
Cursor Pos: 0x337
Note ON - ID: 76, Velocity: 80, Δt: 121
Cursor Pos: 0x33A
Note ON - ID: 72, Velocity: 80, Δt: 0
Cursor Pos: 0x33D
Note OFF/ON - ID: 76, Velocity: 0, Δt: 119
Cursor Pos: 0x340
Note OFF/ON - ID: 72, Velocity: 0, Δt: 0
Cursor Pos: 0x343
Note ON - ID: 84, Velocity: 80, Δt: 121
Cursor Pos: 0x346
Note ON - ID: 76, Velocity: 80, Δt: 0
Cursor Pos: 0x349
Note OFF/ON - ID: 84, Velocity: 0, Δt: 119
Cursor Pos: 0x34C
Note OFF/ON - ID: 76, Velocity: 0, Δt: 0
Cursor Pos: 0x34F
Note ON - ID: 84, Velocity: 80, Δt: 121
Cursor Pos: 0x352
Note ON - ID: 76, Velocity: 80, Δt: 0
Cursor Pos: 0x355
Note OFF/ON - ID: 84, Velocity: 0, Δt: 119
Cursor Pos: 0x358
Note OFF/ON - ID: 76, Velocity: 0, Δt: 0
Cursor Pos: 0x35B
Note ON - ID: 84, Velocity: 80, Δt: 1
Cursor Pos: 0x35E
Note ON - ID: 76, Velocity: 80, Δt: 0
Cursor Pos: 0x361
Note OFF/ON - ID: 84, Velocity: 0, Δt: 119
Cursor Pos: 0x364
Note OFF/ON - ID: 76, Velocity: 0, Δt: 0
Cursor Pos: 0x367
Note ON - ID: 67, Velocity: 80, Δt: 121
Cursor Pos: 0x36A
Note OFF/ON - ID: 67, Velocity: 0, Δt: 119
Cursor Pos: 0x36D
Note ON - ID: 60, Velocity: 80, Δt: 121
Cursor Pos: 0x370
Note OFF/ON - ID: 60, Velocity: 0, Δt: 119
Cursor Pos: 0x373
Note ON - ID: 79, Velocity: 80, Δt: 121
Cursor Pos: 0x376
Note OFF/ON - ID: 79, Velocity: 0, Δt: 119
Cursor Pos: 0x379
Note ON - ID: 78, Velocity: 80, Δt: 1
Cursor Pos: 0x37C
Note OFF/ON - ID: 78, Velocity: 0, Δt: 119
Cursor Pos: 0x37F
Note ON - ID: 77, Velocity: 80, Δt: 1
Cursor Pos: 0x382
Note OFF/ON - ID: 77, Velocity: 0, Δt: 119
Cursor Pos: 0x385
Note ON - ID: 75, Velocity: 80, Δt: 1
Cursor Pos: 0x388
Note OFF/ON - ID: 75, Velocity: 0, Δt: 119
Cursor Pos: 0x38B
Note ON - ID: 76, Velocity: 80, Δt: 121
Cursor Pos: 0x38E
Note ON - ID: 72, Velocity: 80, Δt: 0
Cursor Pos: 0x391
Note OFF/ON - ID: 76, Velocity: 0, Δt: 119
Cursor Pos: 0x394
Note OFF/ON - ID: 72, Velocity: 0, Δt: 0
Cursor Pos: 0x397
Note ON - ID: 68, Velocity: 80, Δt: 121
Cursor Pos: 0x39A
Note OFF/ON - ID: 68, Velocity: 0, Δt: 119
Cursor Pos: 0x39D
Note ON - ID: 69, Velocity: 80, Δt: 1
Cursor Pos: 0x3A0
Note OFF/ON - ID: 69, Velocity: 0, Δt: 119
Cursor Pos: 0x3A3
Note ON - ID: 72, Velocity: 80, Δt: 1
Cursor Pos: 0x3A6
Note OFF/ON - ID: 72, Velocity: 0, Δt: 119
Cursor Pos: 0x3A9
Note ON - ID: 69, Velocity: 80, Δt: 121
Cursor Pos: 0x3AC
Note OFF/ON - ID: 69, Velocity: 0, Δt: 119
Cursor Pos: 0x3AF
Note ON - ID: 72, Velocity: 80, Δt: 1
Cursor Pos: 0x3B2
Note OFF/ON - ID: 72, Velocity: 0, Δt: 119
Cursor Pos: 0x3B5
Note ON - ID: 74, Velocity: 80, Δt: 1
Cursor Pos: 0x3B8
Note OFF/ON - ID: 74, Velocity: 0, Δt: 119
Cursor Pos: 0x3BB
Note ON - ID: 75, Velocity: 80, Δt: 241
Cursor Pos: 0x3BF
Note ON - ID: 68, Velocity: 80, Δt: 0
Cursor Pos: 0x3C2
Note OFF/ON - ID: 75, Velocity: 0, Δt: 119
Cursor Pos: 0x3C5
Note OFF/ON - ID: 68, Velocity: 0, Δt: 0
Cursor Pos: 0x3C8
Note ON - ID: 74, Velocity: 80, Δt: 241
Cursor Pos: 0x3CC
Note ON - ID: 67, Velocity: 80, Δt: 0
Cursor Pos: 0x3CF
Note OFF/ON - ID: 74, Velocity: 0, Δt: 119
Cursor Pos: 0x3D2
Note OFF/ON - ID: 67, Velocity: 0, Δt: 0
Cursor Pos: 0x3D5
Note ON - ID: 72, Velocity: 80, Δt: 241
Cursor Pos: 0x3D9
Note ON - ID: 64, Velocity: 80, Δt: 0
Cursor Pos: 0x3DC
Note OFF/ON - ID: 72, Velocity: 0, Δt: 119
Cursor Pos: 0x3DF
Note OFF/ON - ID: 64, Velocity: 0, Δt: 0
Cursor Pos: 0x3E2
Note ON - ID: 67, Velocity: 80, Δt: 241
Cursor Pos: 0x3E6
Note OFF/ON - ID: 67, Velocity: 0, Δt: 119
Cursor Pos: 0x3E9
Note ON - ID: 67, Velocity: 80, Δt: 1
Cursor Pos: 0x3EC
Note OFF/ON - ID: 67, Velocity: 0, Δt: 119
Cursor Pos: 0x3EF
Note ON - ID: 60, Velocity: 80, Δt: 121
Cursor Pos: 0x3F2
Note OFF/ON - ID: 60, Velocity: 0, Δt: 119
Cursor Pos: 0x3F5
Note ON - ID: 72, Velocity: 80, Δt: 121
Cursor Pos: 0x3F8
Note ON - ID: 64, Velocity: 80, Δt: 0
Cursor Pos: 0x3FB
Note OFF/ON - ID: 72, Velocity: 0, Δt: 119
Cursor Pos: 0x3FE
Note OFF/ON - ID: 64, Velocity: 0, Δt: 0
Cursor Pos: 0x401
Note ON - ID: 72, Velocity: 80, Δt: 1
Cursor Pos: 0x404
Note OFF/ON - ID: 72, Velocity: 0, Δt: 119
Cursor Pos: 0x407
Note ON - ID: 72, Velocity: 80, Δt: 121
Cursor Pos: 0x40A
Note OFF/ON - ID: 72, Velocity: 0, Δt: 119
Cursor Pos: 0x40D
Note ON - ID: 72, Velocity: 80, Δt: 121
Cursor Pos: 0x410
Note OFF/ON - ID: 72, Velocity: 0, Δt: 119
Cursor Pos: 0x413
Note ON - ID: 74, Velocity: 80, Δt: 1
Cursor Pos: 0x416
Note OFF/ON - ID: 74, Velocity: 0, Δt: 119
Cursor Pos: 0x419
Note ON - ID: 76, Velocity: 80, Δt: 121
Cursor Pos: 0x41C
Note OFF/ON - ID: 76, Velocity: 0, Δt: 119
Cursor Pos: 0x41F
Note ON - ID: 72, Velocity: 80, Δt: 1
Cursor Pos: 0x422
Note OFF/ON - ID: 72, Velocity: 0, Δt: 119
Cursor Pos: 0x425
Note ON - ID: 69, Velocity: 80, Δt: 121
Cursor Pos: 0x428
Note OFF/ON - ID: 69, Velocity: 0, Δt: 119
Cursor Pos: 0x42B
Note ON - ID: 67, Velocity: 80, Δt: 1
Cursor Pos: 0x42E
Note OFF/ON - ID: 67, Velocity: 0, Δt: 119
Cursor Pos: 0x431
Note ON - ID: 60, Velocity: 80, Δt: 121
Cursor Pos: 0x434
Note OFF/ON - ID: 60, Velocity: 0, Δt: 119
Cursor Pos: 0x437
Note ON - ID: 72, Velocity: 80, Δt: 121
Cursor Pos: 0x43A
Note ON - ID: 64, Velocity: 80, Δt: 0
Cursor Pos: 0x43D
Note OFF/ON - ID: 72, Velocity: 0, Δt: 119
Cursor Pos: 0x440
Note OFF/ON - ID: 64, Velocity: 0, Δt: 0
Cursor Pos: 0x443
Note ON - ID: 72, Velocity: 80, Δt: 1
Cursor Pos: 0x446
Note OFF/ON - ID: 72, Velocity: 0, Δt: 119
Cursor Pos: 0x449
Note ON - ID: 72, Velocity: 80, Δt: 121
Cursor Pos: 0x44C
Note OFF/ON - ID: 72, Velocity: 0, Δt: 119
Cursor Pos: 0x44F
Note ON - ID: 72, Velocity: 80, Δt: 121
Cursor Pos: 0x452
Note OFF/ON - ID: 72, Velocity: 0, Δt: 119
Cursor Pos: 0x455
Note ON - ID: 74, Velocity: 80, Δt: 1
Cursor Pos: 0x458
Note OFF/ON - ID: 74, Velocity: 0, Δt: 119
Cursor Pos: 0x45B
Note ON - ID: 76, Velocity: 80, Δt: 1
Cursor Pos: 0x45E
Note OFF/ON - ID: 76, Velocity: 0, Δt: 119
Cursor Pos: 0x461
Note ON - ID: 67, Velocity: 80, Δt: 1
Cursor Pos: 0x464
Note OFF/ON - ID: 67, Velocity: 0, Δt: 119
Cursor Pos: 0x467
Note ON - ID: 60, Velocity: 80, Δt: 241
Cursor Pos: 0x46B
Note OFF/ON - ID: 60, Velocity: 0, Δt: 119
Cursor Pos: 0x46E
Note ON - ID: 60, Velocity: 80, Δt: 241
Cursor Pos: 0x472
Note OFF/ON - ID: 60, Velocity: 0, Δt: 119
Cursor Pos: 0x475
Note ON - ID: 72, Velocity: 80, Δt: 121
Cursor Pos: 0x478
Note ON - ID: 64, Velocity: 80, Δt: 0
Cursor Pos: 0x47B
Note OFF/ON - ID: 72, Velocity: 0, Δt: 119
Cursor Pos: 0x47E
Note OFF/ON - ID: 64, Velocity: 0, Δt: 0
Cursor Pos: 0x481
Note ON - ID: 72, Velocity: 80, Δt: 1
Cursor Pos: 0x484
Note OFF/ON - ID: 72, Velocity: 0, Δt: 119
Cursor Pos: 0x487
Note ON - ID: 72, Velocity: 80, Δt: 121
Cursor Pos: 0x48A
Note OFF/ON - ID: 72, Velocity: 0, Δt: 119
Cursor Pos: 0x48D
Note ON - ID: 72, Velocity: 80, Δt: 121
Cursor Pos: 0x490
Note OFF/ON - ID: 72, Velocity: 0, Δt: 119
Cursor Pos: 0x493
Note ON - ID: 74, Velocity: 80, Δt: 1
Cursor Pos: 0x496
Note OFF/ON - ID: 74, Velocity: 0, Δt: 119
Cursor Pos: 0x499
Note ON - ID: 76, Velocity: 80, Δt: 121
Cursor Pos: 0x49C
Note OFF/ON - ID: 76, Velocity: 0, Δt: 119
Cursor Pos: 0x49F
Note ON - ID: 72, Velocity: 80, Δt: 1
Cursor Pos: 0x4A2
Note OFF/ON - ID: 72, Velocity: 0, Δt: 119
Cursor Pos: 0x4A5
Note ON - ID: 69, Velocity: 80, Δt: 121
Cursor Pos: 0x4A8
Note OFF/ON - ID: 69, Velocity: 0, Δt: 119
Cursor Pos: 0x4AB
Note ON - ID: 67, Velocity: 80, Δt: 1
Cursor Pos: 0x4AE
Note OFF/ON - ID: 67, Velocity: 0, Δt: 119
Cursor Pos: 0x4B1
Note ON - ID: 60, Velocity: 80, Δt: 121
Cursor Pos: 0x4B4
Note OFF/ON - ID: 60, Velocity: 0, Δt: 119
Cursor Pos: 0x4B7
Note ON - ID: 76, Velocity: 80, Δt: 121
Cursor Pos: 0x4BA
Note ON - ID: 72, Velocity: 80, Δt: 0
Cursor Pos: 0x4BD
Note OFF/ON - ID: 76, Velocity: 0, Δt: 119
Cursor Pos: 0x4C0
Note OFF/ON - ID: 72, Velocity: 0, Δt: 0
Cursor Pos: 0x4C3
Note ON - ID: 76, Velocity: 80, Δt: 1
Cursor Pos: 0x4C6
Note ON - ID: 72, Velocity: 80, Δt: 0
Cursor Pos: 0x4C9
Note OFF/ON - ID: 76, Velocity: 0, Δt: 119
Cursor Pos: 0x4CC
Note OFF/ON - ID: 72, Velocity: 0, Δt: 0
Cursor Pos: 0x4CF
Note ON - ID: 76, Velocity: 80, Δt: 121
Cursor Pos: 0x4D2
Note ON - ID: 72, Velocity: 80, Δt: 0
Cursor Pos: 0x4D5
Note OFF/ON - ID: 76, Velocity: 0, Δt: 119
Cursor Pos: 0x4D8
Note OFF/ON - ID: 72, Velocity: 0, Δt: 0
Cursor Pos: 0x4DB
Note ON - ID: 72, Velocity: 80, Δt: 121
Cursor Pos: 0x4DE
Note OFF/ON - ID: 72, Velocity: 0, Δt: 119
Cursor Pos: 0x4E1
Note ON - ID: 76, Velocity: 80, Δt: 1
Cursor Pos: 0x4E4
Note OFF/ON - ID: 76, Velocity: 0, Δt: 119
Cursor Pos: 0x4E7
Note ON - ID: 79, Velocity: 80, Δt: 121
Cursor Pos: 0x4EA
Note ON - ID: 71, Velocity: 80, Δt: 0
Cursor Pos: 0x4ED
Note OFF/ON - ID: 79, Velocity: 0, Δt: 239
Cursor Pos: 0x4F1
Note OFF/ON - ID: 71, Velocity: 0, Δt: 0
Cursor Pos: 0x4F4
Note ON - ID: 67, Velocity: 80, Δt: 241
Cursor Pos: 0x4F8
Note ON - ID: 59, Velocity: 80, Δt: 0
Cursor Pos: 0x4FB
Note OFF/ON - ID: 67, Velocity: 0, Δt: 239
Cursor Pos: 0x4FF
Note OFF/ON - ID: 59, Velocity: 0, Δt: 0
Cursor Pos: 0x502
Note ON - ID: 72, Velocity: 80, Δt: 241
Cursor Pos: 0x506
Note OFF/ON - ID: 72, Velocity: 0, Δt: 239
Cursor Pos: 0x50A
Note ON - ID: 67, Velocity: 80, Δt: 121
Cursor Pos: 0x50D
Note OFF/ON - ID: 67, Velocity: 0, Δt: 239
Cursor Pos: 0x511
Note ON - ID: 64, Velocity: 80, Δt: 121
Cursor Pos: 0x514
Note OFF/ON - ID: 64, Velocity: 0, Δt: 239
Cursor Pos: 0x518
Note ON - ID: 69, Velocity: 80, Δt: 121
Cursor Pos: 0x51B
Note OFF/ON - ID: 69, Velocity: 0, Δt: 239
Cursor Pos: 0x51F
Note ON - ID: 71, Velocity: 80, Δt: 1
Cursor Pos: 0x522
Note OFF/ON - ID: 71, Velocity: 0, Δt: 239
Cursor Pos: 0x526
Note ON - ID: 70, Velocity: 80, Δt: 1
Cursor Pos: 0x529
Note OFF/ON - ID: 70, Velocity: 0, Δt: 119
Cursor Pos: 0x52C
Note ON - ID: 69, Velocity: 80, Δt: 1
Cursor Pos: 0x52F
Note OFF/ON - ID: 69, Velocity: 0, Δt: 119
Cursor Pos: 0x532
Note ON - ID: 67, Velocity: 80, Δt: 121
Cursor Pos: 0x535
Note OFF/ON - ID: 67, Velocity: 0, Δt: 159
Cursor Pos: 0x539
Note ON - ID: 76, Velocity: 80, Δt: 1
Cursor Pos: 0x53C
Note OFF/ON - ID: 76, Velocity: 0, Δt: 159
Cursor Pos: 0x540
Note ON - ID: 79, Velocity: 80, Δt: 1
Cursor Pos: 0x543
Note OFF/ON - ID: 79, Velocity: 0, Δt: 159
Cursor Pos: 0x547
Note ON - ID: 81, Velocity: 80, Δt: 1
Cursor Pos: 0x54A
Note OFF/ON - ID: 81, Velocity: 0, Δt: 239
Cursor Pos: 0x54E
Note ON - ID: 77, Velocity: 80, Δt: 1
Cursor Pos: 0x551
Note OFF/ON - ID: 77, Velocity: 0, Δt: 119
Cursor Pos: 0x554
Note ON - ID: 79, Velocity: 80, Δt: 1
Cursor Pos: 0x557
Note OFF/ON - ID: 79, Velocity: 0, Δt: 119
Cursor Pos: 0x55A
Note ON - ID: 76, Velocity: 80, Δt: 121
Cursor Pos: 0x55D
Note OFF/ON - ID: 76, Velocity: 0, Δt: 239
Cursor Pos: 0x561
Note ON - ID: 72, Velocity: 80, Δt: 1
Cursor Pos: 0x564
Note OFF/ON - ID: 72, Velocity: 0, Δt: 119
Cursor Pos: 0x567
Note ON - ID: 74, Velocity: 80, Δt: 1
Cursor Pos: 0x56A
Note OFF/ON - ID: 74, Velocity: 0, Δt: 119
Cursor Pos: 0x56D
Note ON - ID: 71, Velocity: 80, Δt: 1
Cursor Pos: 0x570
Note OFF/ON - ID: 71, Velocity: 0, Δt: 119
Cursor Pos: 0x573
Note ON - ID: 72, Velocity: 80, Δt: 241
Cursor Pos: 0x577
Note OFF/ON - ID: 72, Velocity: 0, Δt: 239
Cursor Pos: 0x57B
Note ON - ID: 67, Velocity: 80, Δt: 121
Cursor Pos: 0x57E
Note OFF/ON - ID: 67, Velocity: 0, Δt: 239
Cursor Pos: 0x582
Note ON - ID: 64, Velocity: 80, Δt: 121
Cursor Pos: 0x585
Note OFF/ON - ID: 64, Velocity: 0, Δt: 239
Cursor Pos: 0x589
Note ON - ID: 69, Velocity: 80, Δt: 121
Cursor Pos: 0x58C
Note OFF/ON - ID: 69, Velocity: 0, Δt: 239
Cursor Pos: 0x590
Note ON - ID: 71, Velocity: 80, Δt: 1
Cursor Pos: 0x593
Note OFF/ON - ID: 71, Velocity: 0, Δt: 239
Cursor Pos: 0x597
Note ON - ID: 70, Velocity: 80, Δt: 1
Cursor Pos: 0x59A
Note OFF/ON - ID: 70, Velocity: 0, Δt: 119
Cursor Pos: 0x59D
Note ON - ID: 69, Velocity: 80, Δt: 1
Cursor Pos: 0x5A0
Note OFF/ON - ID: 69, Velocity: 0, Δt: 119
Cursor Pos: 0x5A3
Note ON - ID: 67, Velocity: 80, Δt: 121
Cursor Pos: 0x5A6
Note OFF/ON - ID: 67, Velocity: 0, Δt: 159
Cursor Pos: 0x5AA
Note ON - ID: 76, Velocity: 80, Δt: 1
Cursor Pos: 0x5AD
Note OFF/ON - ID: 76, Velocity: 0, Δt: 159
Cursor Pos: 0x5B1
Note ON - ID: 79, Velocity: 80, Δt: 1
Cursor Pos: 0x5B4
Note OFF/ON - ID: 79, Velocity: 0, Δt: 159
Cursor Pos: 0x5B8
Note ON - ID: 81, Velocity: 80, Δt: 1
Cursor Pos: 0x5BB
Note OFF/ON - ID: 81, Velocity: 0, Δt: 239
Cursor Pos: 0x5BF
Note ON - ID: 77, Velocity: 80, Δt: 1
Cursor Pos: 0x5C2
Note OFF/ON - ID: 77, Velocity: 0, Δt: 119
Cursor Pos: 0x5C5
Note ON - ID: 79, Velocity: 80, Δt: 1
Cursor Pos: 0x5C8
Note OFF/ON - ID: 79, Velocity: 0, Δt: 119
Cursor Pos: 0x5CB
Note ON - ID: 76, Velocity: 80, Δt: 121
Cursor Pos: 0x5CE
Note OFF/ON - ID: 76, Velocity: 0, Δt: 239
Cursor Pos: 0x5D2
Note ON - ID: 72, Velocity: 80, Δt: 1
Cursor Pos: 0x5D5
Note OFF/ON - ID: 72, Velocity: 0, Δt: 119
Cursor Pos: 0x5D8
Note ON - ID: 74, Velocity: 80, Δt: 1
Cursor Pos: 0x5DB
Note OFF/ON - ID: 74, Velocity: 0, Δt: 119
Cursor Pos: 0x5DE
Note ON - ID: 71, Velocity: 80, Δt: 1
Cursor Pos: 0x5E1
Note OFF/ON - ID: 71, Velocity: 0, Δt: 119
Cursor Pos: 0x5E4
Note ON - ID: 76, Velocity: 80, Δt: 241
Cursor Pos: 0x5E8
Note OFF/ON - ID: 76, Velocity: 0, Δt: 119
Cursor Pos: 0x5EB
Note ON - ID: 72, Velocity: 80, Δt: 1
Cursor Pos: 0x5EE
Note OFF/ON - ID: 72, Velocity: 0, Δt: 119
Cursor Pos: 0x5F1
Note ON - ID: 67, Velocity: 80, Δt: 121
Cursor Pos: 0x5F4
Note OFF/ON - ID: 67, Velocity: 0, Δt: 239
Cursor Pos: 0x5F8
Note ON - ID: 68, Velocity: 80, Δt: 121
Cursor Pos: 0x5FB
Note OFF/ON - ID: 68, Velocity: 0, Δt: 239
Cursor Pos: 0x5FF
Note ON - ID: 69, Velocity: 80, Δt: 1
Cursor Pos: 0x602
Note OFF/ON - ID: 69, Velocity: 0, Δt: 119
Cursor Pos: 0x605
Note ON - ID: 77, Velocity: 80, Δt: 1
Cursor Pos: 0x608
Note OFF/ON - ID: 77, Velocity: 0, Δt: 119
Cursor Pos: 0x60B
Note ON - ID: 77, Velocity: 80, Δt: 121
Cursor Pos: 0x60E
Note OFF/ON - ID: 77, Velocity: 0, Δt: 119
Cursor Pos: 0x611
Note ON - ID: 69, Velocity: 80, Δt: 1
Cursor Pos: 0x614
Note OFF/ON - ID: 69, Velocity: 0, Δt: 119
Cursor Pos: 0x617
Note ON - ID: 60, Velocity: 80, Δt: 121
Cursor Pos: 0x61A
Note OFF/ON - ID: 60, Velocity: 0, Δt: 119
Cursor Pos: 0x61D
Note ON - ID: 71, Velocity: 80, Δt: 121
Cursor Pos: 0x620
Note ON - ID: 67, Velocity: 80, Δt: 0
Cursor Pos: 0x623
Note OFF/ON - ID: 71, Velocity: 0, Δt: 159
Cursor Pos: 0x627
Note OFF/ON - ID: 67, Velocity: 0, Δt: 0
Cursor Pos: 0x62A
Note ON - ID: 81, Velocity: 80, Δt: 1
Cursor Pos: 0x62D
Note ON - ID: 77, Velocity: 80, Δt: 0
Cursor Pos: 0x630
Note OFF/ON - ID: 81, Velocity: 0, Δt: 159
Cursor Pos: 0x634
Note OFF/ON - ID: 77, Velocity: 0, Δt: 0
Cursor Pos: 0x637
Note ON - ID: 81, Velocity: 80, Δt: 1
Cursor Pos: 0x63A
Note ON - ID: 77, Velocity: 80, Δt: 0
Cursor Pos: 0x63D
Note OFF/ON - ID: 81, Velocity: 0, Δt: 159
Cursor Pos: 0x641
Note OFF/ON - ID: 77, Velocity: 0, Δt: 0
Cursor Pos: 0x644
Note ON - ID: 81, Velocity: 80, Δt: 1
Cursor Pos: 0x647
Note ON - ID: 77, Velocity: 80, Δt: 0
Cursor Pos: 0x64A
Note OFF/ON - ID: 81, Velocity: 0, Δt: 159
Cursor Pos: 0x64E
Note OFF/ON - ID: 77, Velocity: 0, Δt: 0
Cursor Pos: 0x651
Note ON - ID: 79, Velocity: 80, Δt: 1
Cursor Pos: 0x654
Note ON - ID: 71, Velocity: 80, Δt: 0
Cursor Pos: 0x657
Note OFF/ON - ID: 79, Velocity: 0, Δt: 159
Cursor Pos: 0x65B
Note OFF/ON - ID: 71, Velocity: 0, Δt: 0
Cursor Pos: 0x65E
Note ON - ID: 77, Velocity: 80, Δt: 1
Cursor Pos: 0x661
Note OFF/ON - ID: 77, Velocity: 0, Δt: 159
Cursor Pos: 0x665
Note ON - ID: 76, Velocity: 80, Δt: 1
Cursor Pos: 0x668
Note OFF/ON - ID: 76, Velocity: 0, Δt: 119
Cursor Pos: 0x66B
Note ON - ID: 72, Velocity: 80, Δt: 1
Cursor Pos: 0x66E
Note OFF/ON - ID: 72, Velocity: 0, Δt: 119
Cursor Pos: 0x671
Note ON - ID: 69, Velocity: 80, Δt: 121
Cursor Pos: 0x674
Note OFF/ON - ID: 69, Velocity: 0, Δt: 119
Cursor Pos: 0x677
Note ON - ID: 67, Velocity: 80, Δt: 1
Cursor Pos: 0x67A
Note OFF/ON - ID: 67, Velocity: 0, Δt: 119
Cursor Pos: 0x67D
Note ON - ID: 60, Velocity: 80, Δt: 121
Cursor Pos: 0x680
Note OFF/ON - ID: 60, Velocity: 0, Δt: 119
Cursor Pos: 0x683
Note ON - ID: 76, Velocity: 80, Δt: 121
Cursor Pos: 0x686
Note OFF/ON - ID: 76, Velocity: 0, Δt: 119
Cursor Pos: 0x689
Note ON - ID: 72, Velocity: 80, Δt: 1
Cursor Pos: 0x68C
Note OFF/ON - ID: 72, Velocity: 0, Δt: 119
Cursor Pos: 0x68F
Note ON - ID: 67, Velocity: 80, Δt: 121
Cursor Pos: 0x692
Note OFF/ON - ID: 67, Velocity: 0, Δt: 239
Cursor Pos: 0x696
Note ON - ID: 68, Velocity: 80, Δt: 121
Cursor Pos: 0x699
Note OFF/ON - ID: 68, Velocity: 0, Δt: 239
Cursor Pos: 0x69D
Note ON - ID: 69, Velocity: 80, Δt: 1
Cursor Pos: 0x6A0
Note OFF/ON - ID: 69, Velocity: 0, Δt: 119
Cursor Pos: 0x6A3
Note ON - ID: 77, Velocity: 80, Δt: 1
Cursor Pos: 0x6A6
Note OFF/ON - ID: 77, Velocity: 0, Δt: 119
Cursor Pos: 0x6A9
Note ON - ID: 77, Velocity: 80, Δt: 121
Cursor Pos: 0x6AC
Note OFF/ON - ID: 77, Velocity: 0, Δt: 119
Cursor Pos: 0x6AF
Note ON - ID: 69, Velocity: 80, Δt: 1
Cursor Pos: 0x6B2
Note OFF/ON - ID: 69, Velocity: 0, Δt: 119
Cursor Pos: 0x6B5
Note ON - ID: 60, Velocity: 80, Δt: 121
Cursor Pos: 0x6B8
Note OFF/ON - ID: 60, Velocity: 0, Δt: 119
Cursor Pos: 0x6BB
Note ON - ID: 71, Velocity: 80, Δt: 121
Cursor Pos: 0x6BE
Note ON - ID: 67, Velocity: 80, Δt: 0
Cursor Pos: 0x6C1
Note OFF/ON - ID: 71, Velocity: 0, Δt: 119
Cursor Pos: 0x6C4
Note OFF/ON - ID: 67, Velocity: 0, Δt: 0
Cursor Pos: 0x6C7
Note ON - ID: 77, Velocity: 80, Δt: 1
Cursor Pos: 0x6CA
Note ON - ID: 69, Velocity: 80, Δt: 0
Cursor Pos: 0x6CD
Note OFF/ON - ID: 77, Velocity: 0, Δt: 119
Cursor Pos: 0x6D0
Note OFF/ON - ID: 69, Velocity: 0, Δt: 0
Cursor Pos: 0x6D3
Note ON - ID: 77, Velocity: 80, Δt: 121
Cursor Pos: 0x6D6
Note ON - ID: 69, Velocity: 80, Δt: 0
Cursor Pos: 0x6D9
Note OFF/ON - ID: 77, Velocity: 0, Δt: 119
Cursor Pos: 0x6DC
Note OFF/ON - ID: 69, Velocity: 0, Δt: 0
Cursor Pos: 0x6DF
Note ON - ID: 77, Velocity: 80, Δt: 1
Cursor Pos: 0x6E2
Note ON - ID: 69, Velocity: 80, Δt: 0
Cursor Pos: 0x6E5
Note OFF/ON - ID: 77, Velocity: 0, Δt: 159
Cursor Pos: 0x6E9
Note OFF/ON - ID: 69, Velocity: 0, Δt: 0
Cursor Pos: 0x6EC
Note ON - ID: 76, Velocity: 80, Δt: 1
Cursor Pos: 0x6EF
Note ON - ID: 67, Velocity: 80, Δt: 0
Cursor Pos: 0x6F2
Note OFF/ON - ID: 76, Velocity: 0, Δt: 159
Cursor Pos: 0x6F6
Note OFF/ON - ID: 67, Velocity: 0, Δt: 0
Cursor Pos: 0x6F9
Note ON - ID: 74, Velocity: 80, Δt: 1
Cursor Pos: 0x6FC
Note ON - ID: 65, Velocity: 80, Δt: 0
Cursor Pos: 0x6FF
Note OFF/ON - ID: 74, Velocity: 0, Δt: 159
Cursor Pos: 0x703
Note OFF/ON - ID: 65, Velocity: 0, Δt: 0
Cursor Pos: 0x706
Note ON - ID: 72, Velocity: 80, Δt: 1
Cursor Pos: 0x709
Note ON - ID: 64, Velocity: 80, Δt: 0
Cursor Pos: 0x70C
Note OFF/ON - ID: 72, Velocity: 0, Δt: 119
Cursor Pos: 0x70F
Note OFF/ON - ID: 64, Velocity: 0, Δt: 0
Cursor Pos: 0x712
Note ON - ID: 67, Velocity: 80, Δt: 1
Cursor Pos: 0x715
Note OFF/ON - ID: 67, Velocity: 0, Δt: 119
Cursor Pos: 0x718
Note ON - ID: 67, Velocity: 80, Δt: 121
Cursor Pos: 0x71B
Note OFF/ON - ID: 67, Velocity: 0, Δt: 119
Cursor Pos: 0x71E
Note ON - ID: 60, Velocity: 80, Δt: 1
Cursor Pos: 0x721
Note OFF/ON - ID: 60, Velocity: 0, Δt: 239
Cursor Pos: 0x725
Note ON - ID: 76, Velocity: 80, Δt: 241
Cursor Pos: 0x729
Note OFF/ON - ID: 76, Velocity: 0, Δt: 119
Cursor Pos: 0x72C
Note ON - ID: 72, Velocity: 80, Δt: 1
Cursor Pos: 0x72F
Note OFF/ON - ID: 72, Velocity: 0, Δt: 119
Cursor Pos: 0x732
Note ON - ID: 67, Velocity: 80, Δt: 121
Cursor Pos: 0x735
Note OFF/ON - ID: 67, Velocity: 0, Δt: 239
Cursor Pos: 0x739
Note ON - ID: 68, Velocity: 80, Δt: 121
Cursor Pos: 0x73C
Note OFF/ON - ID: 68, Velocity: 0, Δt: 239
Cursor Pos: 0x740
Note ON - ID: 69, Velocity: 80, Δt: 1
Cursor Pos: 0x743
Note OFF/ON - ID: 69, Velocity: 0, Δt: 119
Cursor Pos: 0x746
Note ON - ID: 77, Velocity: 80, Δt: 1
Cursor Pos: 0x749
Note OFF/ON - ID: 77, Velocity: 0, Δt: 119
Cursor Pos: 0x74C
Note ON - ID: 77, Velocity: 80, Δt: 121
Cursor Pos: 0x74F
Note OFF/ON - ID: 77, Velocity: 0, Δt: 119
Cursor Pos: 0x752
Note ON - ID: 69, Velocity: 80, Δt: 1
Cursor Pos: 0x755
Note OFF/ON - ID: 69, Velocity: 0, Δt: 119
Cursor Pos: 0x758
Note ON - ID: 60, Velocity: 80, Δt: 121
Cursor Pos: 0x75B
Note OFF/ON - ID: 60, Velocity: 0, Δt: 119
Cursor Pos: 0x75E
Note ON - ID: 71, Velocity: 80, Δt: 121
Cursor Pos: 0x761
Note ON - ID: 67, Velocity: 80, Δt: 0
Cursor Pos: 0x764
Note OFF/ON - ID: 71, Velocity: 0, Δt: 159
Cursor Pos: 0x768
Note OFF/ON - ID: 67, Velocity: 0, Δt: 0
Cursor Pos: 0x76B
Note ON - ID: 81, Velocity: 80, Δt: 1
Cursor Pos: 0x76E
Note ON - ID: 77, Velocity: 80, Δt: 0
Cursor Pos: 0x771
Note OFF/ON - ID: 81, Velocity: 0, Δt: 159
Cursor Pos: 0x775
Note OFF/ON - ID: 77, Velocity: 0, Δt: 0
Cursor Pos: 0x778
Note ON - ID: 81, Velocity: 80, Δt: 1
Cursor Pos: 0x77B
Note ON - ID: 77, Velocity: 80, Δt: 0
Cursor Pos: 0x77E
Note OFF/ON - ID: 81, Velocity: 0, Δt: 159
Cursor Pos: 0x782
Note OFF/ON - ID: 77, Velocity: 0, Δt: 0
Cursor Pos: 0x785
Note ON - ID: 81, Velocity: 80, Δt: 1
Cursor Pos: 0x788
Note ON - ID: 77, Velocity: 80, Δt: 0
Cursor Pos: 0x78B
Note OFF/ON - ID: 81, Velocity: 0, Δt: 159
Cursor Pos: 0x78F
Note OFF/ON - ID: 77, Velocity: 0, Δt: 0
Cursor Pos: 0x792
Note ON - ID: 79, Velocity: 80, Δt: 1
Cursor Pos: 0x795
Note ON - ID: 71, Velocity: 80, Δt: 0
Cursor Pos: 0x798
Note OFF/ON - ID: 79, Velocity: 0, Δt: 159
Cursor Pos: 0x79C
Note OFF/ON - ID: 71, Velocity: 0, Δt: 0
Cursor Pos: 0x79F
Note ON - ID: 77, Velocity: 80, Δt: 1
Cursor Pos: 0x7A2
Note OFF/ON - ID: 77, Velocity: 0, Δt: 159
Cursor Pos: 0x7A6
Note ON - ID: 76, Velocity: 80, Δt: 1
Cursor Pos: 0x7A9
Note OFF/ON - ID: 76, Velocity: 0, Δt: 119
Cursor Pos: 0x7AC
Note ON - ID: 72, Velocity: 80, Δt: 1
Cursor Pos: 0x7AF
Note OFF/ON - ID: 72, Velocity: 0, Δt: 119
Cursor Pos: 0x7B2
Note ON - ID: 69, Velocity: 80, Δt: 121
Cursor Pos: 0x7B5
Note OFF/ON - ID: 69, Velocity: 0, Δt: 119
Cursor Pos: 0x7B8
Note ON - ID: 67, Velocity: 80, Δt: 1
Cursor Pos: 0x7BB
Note OFF/ON - ID: 67, Velocity: 0, Δt: 119
Cursor Pos: 0x7BE
Note ON - ID: 60, Velocity: 80, Δt: 121
Cursor Pos: 0x7C1
Note OFF/ON - ID: 60, Velocity: 0, Δt: 119
Cursor Pos: 0x7C4
Note ON - ID: 76, Velocity: 80, Δt: 121
Cursor Pos: 0x7C7
Note OFF/ON - ID: 76, Velocity: 0, Δt: 119
Cursor Pos: 0x7CA
Note ON - ID: 72, Velocity: 80, Δt: 1
Cursor Pos: 0x7CD
Note OFF/ON - ID: 72, Velocity: 0, Δt: 119
Cursor Pos: 0x7D0
Note ON - ID: 67, Velocity: 80, Δt: 121
Cursor Pos: 0x7D3
Note OFF/ON - ID: 67, Velocity: 0, Δt: 239
Cursor Pos: 0x7D7
Note ON - ID: 68, Velocity: 80, Δt: 121
Cursor Pos: 0x7DA
Note OFF/ON - ID: 68, Velocity: 0, Δt: 239
Cursor Pos: 0x7DE
Note ON - ID: 69, Velocity: 80, Δt: 1
Cursor Pos: 0x7E1
Note OFF/ON - ID: 69, Velocity: 0, Δt: 119
Cursor Pos: 0x7E4
Note ON - ID: 77, Velocity: 80, Δt: 1
Cursor Pos: 0x7E7
Note OFF/ON - ID: 77, Velocity: 0, Δt: 119
Cursor Pos: 0x7EA
Note ON - ID: 77, Velocity: 80, Δt: 121
Cursor Pos: 0x7ED
Note OFF/ON - ID: 77, Velocity: 0, Δt: 119
Cursor Pos: 0x7F0
Note ON - ID: 69, Velocity: 80, Δt: 1
Cursor Pos: 0x7F3
Note OFF/ON - ID: 69, Velocity: 0, Δt: 119
Cursor Pos: 0x7F6
Note ON - ID: 60, Velocity: 80, Δt: 121
Cursor Pos: 0x7F9
Note OFF/ON - ID: 60, Velocity: 0, Δt: 119
Cursor Pos: 0x7FC
Note ON - ID: 71, Velocity: 80, Δt: 121
Cursor Pos: 0x7FF
Note ON - ID: 67, Velocity: 80, Δt: 0
Cursor Pos: 0x802
Note OFF/ON - ID: 71, Velocity: 0, Δt: 119
Cursor Pos: 0x805
Note OFF/ON - ID: 67, Velocity: 0, Δt: 0
Cursor Pos: 0x808
Note ON - ID: 77, Velocity: 80, Δt: 1
Cursor Pos: 0x80B
Note ON - ID: 69, Velocity: 80, Δt: 0
Cursor Pos: 0x80E
Note OFF/ON - ID: 77, Velocity: 0, Δt: 119
Cursor Pos: 0x811
Note OFF/ON - ID: 69, Velocity: 0, Δt: 0
Cursor Pos: 0x814
Note ON - ID: 77, Velocity: 80, Δt: 121
Cursor Pos: 0x817
Note ON - ID: 69, Velocity: 80, Δt: 0
Cursor Pos: 0x81A
Note OFF/ON - ID: 77, Velocity: 0, Δt: 119
Cursor Pos: 0x81D
Note OFF/ON - ID: 69, Velocity: 0, Δt: 0
Cursor Pos: 0x820
Note ON - ID: 77, Velocity: 80, Δt: 1
Cursor Pos: 0x823
Note ON - ID: 69, Velocity: 80, Δt: 0
Cursor Pos: 0x826
Note OFF/ON - ID: 77, Velocity: 0, Δt: 159
Cursor Pos: 0x82A
Note OFF/ON - ID: 69, Velocity: 0, Δt: 0
Cursor Pos: 0x82D
Note ON - ID: 76, Velocity: 80, Δt: 1
Cursor Pos: 0x830
Note ON - ID: 67, Velocity: 80, Δt: 0
Cursor Pos: 0x833
Note OFF/ON - ID: 76, Velocity: 0, Δt: 159
Cursor Pos: 0x837
Note OFF/ON - ID: 67, Velocity: 0, Δt: 0
Cursor Pos: 0x83A
Note ON - ID: 74, Velocity: 80, Δt: 1
Cursor Pos: 0x83D
Note ON - ID: 65, Velocity: 80, Δt: 0
Cursor Pos: 0x840
Note OFF/ON - ID: 74, Velocity: 0, Δt: 159
Cursor Pos: 0x844
Note OFF/ON - ID: 65, Velocity: 0, Δt: 0
Cursor Pos: 0x847
Note ON - ID: 72, Velocity: 80, Δt: 1
Cursor Pos: 0x84A
Note ON - ID: 64, Velocity: 80, Δt: 0
Cursor Pos: 0x84D
Note OFF/ON - ID: 72, Velocity: 0, Δt: 119
Cursor Pos: 0x850
Note OFF/ON - ID: 64, Velocity: 0, Δt: 0
Cursor Pos: 0x853
Note ON - ID: 67, Velocity: 80, Δt: 1
Cursor Pos: 0x856
Note OFF/ON - ID: 67, Velocity: 0, Δt: 119
Cursor Pos: 0x859
Note ON - ID: 67, Velocity: 80, Δt: 121
Cursor Pos: 0x85C
Note OFF/ON - ID: 67, Velocity: 0, Δt: 119
Cursor Pos: 0x85F
Note ON - ID: 60, Velocity: 80, Δt: 1
Cursor Pos: 0x862
Note OFF/ON - ID: 60, Velocity: 0, Δt: 239
Cursor Pos: 0x866
Note ON - ID: 72, Velocity: 80, Δt: 241
Cursor Pos: 0x86A
Note ON - ID: 64, Velocity: 80, Δt: 0
Cursor Pos: 0x86D
Note OFF/ON - ID: 72, Velocity: 0, Δt: 119
Cursor Pos: 0x870
Note OFF/ON - ID: 64, Velocity: 0, Δt: 0
Cursor Pos: 0x873
Note ON - ID: 72, Velocity: 80, Δt: 1
Cursor Pos: 0x876
Note OFF/ON - ID: 72, Velocity: 0, Δt: 119
Cursor Pos: 0x879
Note ON - ID: 72, Velocity: 80, Δt: 121
Cursor Pos: 0x87C
Note OFF/ON - ID: 72, Velocity: 0, Δt: 119
Cursor Pos: 0x87F
Note ON - ID: 72, Velocity: 80, Δt: 121
Cursor Pos: 0x882
Note OFF/ON - ID: 72, Velocity: 0, Δt: 119
Cursor Pos: 0x885
Note ON - ID: 74, Velocity: 80, Δt: 1
Cursor Pos: 0x888
Note OFF/ON - ID: 74, Velocity: 0, Δt: 119
Cursor Pos: 0x88B
Note ON - ID: 76, Velocity: 80, Δt: 121
Cursor Pos: 0x88E
Note OFF/ON - ID: 76, Velocity: 0, Δt: 119
Cursor Pos: 0x891
Note ON - ID: 72, Velocity: 80, Δt: 1
Cursor Pos: 0x894
Note OFF/ON - ID: 72, Velocity: 0, Δt: 119
Cursor Pos: 0x897
Note ON - ID: 69, Velocity: 80, Δt: 121
Cursor Pos: 0x89A
Note OFF/ON - ID: 69, Velocity: 0, Δt: 119
Cursor Pos: 0x89D
Note ON - ID: 67, Velocity: 80, Δt: 1
Cursor Pos: 0x8A0
Note OFF/ON - ID: 67, Velocity: 0, Δt: 119
Cursor Pos: 0x8A3
Note ON - ID: 60, Velocity: 80, Δt: 121
Cursor Pos: 0x8A6
Note OFF/ON - ID: 60, Velocity: 0, Δt: 119
Cursor Pos: 0x8A9
Note ON - ID: 72, Velocity: 80, Δt: 121
Cursor Pos: 0x8AC
Note ON - ID: 64, Velocity: 80, Δt: 0
Cursor Pos: 0x8AF
Note OFF/ON - ID: 72, Velocity: 0, Δt: 119
Cursor Pos: 0x8B2
Note OFF/ON - ID: 64, Velocity: 0, Δt: 0
Cursor Pos: 0x8B5
Note ON - ID: 72, Velocity: 80, Δt: 1
Cursor Pos: 0x8B8
Note OFF/ON - ID: 72, Velocity: 0, Δt: 119
Cursor Pos: 0x8BB
Note ON - ID: 72, Velocity: 80, Δt: 121
Cursor Pos: 0x8BE
Note OFF/ON - ID: 72, Velocity: 0, Δt: 119
Cursor Pos: 0x8C1
Note ON - ID: 72, Velocity: 80, Δt: 121
Cursor Pos: 0x8C4
Note OFF/ON - ID: 72, Velocity: 0, Δt: 119
Cursor Pos: 0x8C7
Note ON - ID: 74, Velocity: 80, Δt: 1
Cursor Pos: 0x8CA
Note OFF/ON - ID: 74, Velocity: 0, Δt: 119
Cursor Pos: 0x8CD
Note ON - ID: 76, Velocity: 80, Δt: 1
Cursor Pos: 0x8D0
Note OFF/ON - ID: 76, Velocity: 0, Δt: 119
Cursor Pos: 0x8D3
Note ON - ID: 67, Velocity: 80, Δt: 1
Cursor Pos: 0x8D6
Note OFF/ON - ID: 67, Velocity: 0, Δt: 119
Cursor Pos: 0x8D9
Note ON - ID: 60, Velocity: 80, Δt: 241
Cursor Pos: 0x8DD
Note OFF/ON - ID: 60, Velocity: 0, Δt: 119
Cursor Pos: 0x8E0
Note ON - ID: 60, Velocity: 80, Δt: 241
Cursor Pos: 0x8E4
Note OFF/ON - ID: 60, Velocity: 0, Δt: 119
Cursor Pos: 0x8E7
Note ON - ID: 72, Velocity: 80, Δt: 121
Cursor Pos: 0x8EA
Note ON - ID: 64, Velocity: 80, Δt: 0
Cursor Pos: 0x8ED
Note OFF/ON - ID: 72, Velocity: 0, Δt: 119
Cursor Pos: 0x8F0
Note OFF/ON - ID: 64, Velocity: 0, Δt: 0
Cursor Pos: 0x8F3
Note ON - ID: 72, Velocity: 80, Δt: 1
Cursor Pos: 0x8F6
Note OFF/ON - ID: 72, Velocity: 0, Δt: 119
Cursor Pos: 0x8F9
Note ON - ID: 72, Velocity: 80, Δt: 121
Cursor Pos: 0x8FC
Note OFF/ON - ID: 72, Velocity: 0, Δt: 119
Cursor Pos: 0x8FF
Note ON - ID: 72, Velocity: 80, Δt: 121
Cursor Pos: 0x902
Note OFF/ON - ID: 72, Velocity: 0, Δt: 119
Cursor Pos: 0x905
Note ON - ID: 74, Velocity: 80, Δt: 1
Cursor Pos: 0x908
Note OFF/ON - ID: 74, Velocity: 0, Δt: 119
Cursor Pos: 0x90B
Note ON - ID: 76, Velocity: 80, Δt: 121
Cursor Pos: 0x90E
Note OFF/ON - ID: 76, Velocity: 0, Δt: 119
Cursor Pos: 0x911
Note ON - ID: 72, Velocity: 80, Δt: 1
Cursor Pos: 0x914
Note OFF/ON - ID: 72, Velocity: 0, Δt: 119
Cursor Pos: 0x917
Note ON - ID: 69, Velocity: 80, Δt: 121
Cursor Pos: 0x91A
Note OFF/ON - ID: 69, Velocity: 0, Δt: 119
Cursor Pos: 0x91D
Note ON - ID: 67, Velocity: 80, Δt: 1
Cursor Pos: 0x920
Note OFF/ON - ID: 67, Velocity: 0, Δt: 119
Cursor Pos: 0x923
Note ON - ID: 60, Velocity: 80, Δt: 121
Cursor Pos: 0x926
Note OFF/ON - ID: 60, Velocity: 0, Δt: 119
Cursor Pos: 0x929
Note ON - ID: 76, Velocity: 80, Δt: 121
Cursor Pos: 0x92C
Note ON - ID: 72, Velocity: 80, Δt: 0
Cursor Pos: 0x92F
Note OFF/ON - ID: 76, Velocity: 0, Δt: 119
Cursor Pos: 0x932
Note OFF/ON - ID: 72, Velocity: 0, Δt: 0
Cursor Pos: 0x935
Note ON - ID: 76, Velocity: 80, Δt: 1
Cursor Pos: 0x938
Note ON - ID: 72, Velocity: 80, Δt: 0
Cursor Pos: 0x93B
Note OFF/ON - ID: 76, Velocity: 0, Δt: 119
Cursor Pos: 0x93E
Note OFF/ON - ID: 72, Velocity: 0, Δt: 0
Cursor Pos: 0x941
Note ON - ID: 76, Velocity: 80, Δt: 121
Cursor Pos: 0x944
Note ON - ID: 72, Velocity: 80, Δt: 0
Cursor Pos: 0x947
Note OFF/ON - ID: 76, Velocity: 0, Δt: 119
Cursor Pos: 0x94A
Note OFF/ON - ID: 72, Velocity: 0, Δt: 0
Cursor Pos: 0x94D
Note ON - ID: 72, Velocity: 80, Δt: 121
Cursor Pos: 0x950
Note OFF/ON - ID: 72, Velocity: 0, Δt: 119
Cursor Pos: 0x953
Note ON - ID: 76, Velocity: 80, Δt: 1
Cursor Pos: 0x956
Note OFF/ON - ID: 76, Velocity: 0, Δt: 119
Cursor Pos: 0x959
Note ON - ID: 79, Velocity: 80, Δt: 121
Cursor Pos: 0x95C
Note ON - ID: 71, Velocity: 80, Δt: 0
Cursor Pos: 0x95F
Note OFF/ON - ID: 79, Velocity: 0, Δt: 239
Cursor Pos: 0x963
Note OFF/ON - ID: 71, Velocity: 0, Δt: 0
Cursor Pos: 0x966
Note ON - ID: 67, Velocity: 80, Δt: 241
Cursor Pos: 0x96A
Note ON - ID: 59, Velocity: 80, Δt: 0
Cursor Pos: 0x96D
Note OFF/ON - ID: 67, Velocity: 0, Δt: 239
Cursor Pos: 0x971
Note OFF/ON - ID: 59, Velocity: 0, Δt: 0
Cursor Pos: 0x974
Note ON - ID: 76, Velocity: 80, Δt: 241
Cursor Pos: 0x978
Note OFF/ON - ID: 76, Velocity: 0, Δt: 119
Cursor Pos: 0x97B
Note ON - ID: 72, Velocity: 80, Δt: 1
Cursor Pos: 0x97E
Note OFF/ON - ID: 72, Velocity: 0, Δt: 119
Cursor Pos: 0x981
Note ON - ID: 67, Velocity: 80, Δt: 121
Cursor Pos: 0x984
Note OFF/ON - ID: 67, Velocity: 0, Δt: 239
Cursor Pos: 0x988
Note ON - ID: 68, Velocity: 80, Δt: 121
Cursor Pos: 0x98B
Note OFF/ON - ID: 68, Velocity: 0, Δt: 239
Cursor Pos: 0x98F
Note ON - ID: 69, Velocity: 80, Δt: 1
Cursor Pos: 0x992
Note OFF/ON - ID: 69, Velocity: 0, Δt: 119
Cursor Pos: 0x995
Note ON - ID: 77, Velocity: 80, Δt: 1
Cursor Pos: 0x998
Note OFF/ON - ID: 77, Velocity: 0, Δt: 119
Cursor Pos: 0x99B
Note ON - ID: 77, Velocity: 80, Δt: 121
Cursor Pos: 0x99E
Note OFF/ON - ID: 77, Velocity: 0, Δt: 119
Cursor Pos: 0x9A1
Note ON - ID: 69, Velocity: 80, Δt: 1
Cursor Pos: 0x9A4
Note OFF/ON - ID: 69, Velocity: 0, Δt: 119
Cursor Pos: 0x9A7
Note ON - ID: 60, Velocity: 80, Δt: 121
Cursor Pos: 0x9AA
Note OFF/ON - ID: 60, Velocity: 0, Δt: 119
Cursor Pos: 0x9AD
Note ON - ID: 71, Velocity: 80, Δt: 121
Cursor Pos: 0x9B0
Note ON - ID: 67, Velocity: 80, Δt: 0
Cursor Pos: 0x9B3
Note OFF/ON - ID: 71, Velocity: 0, Δt: 159
Cursor Pos: 0x9B7
Note OFF/ON - ID: 67, Velocity: 0, Δt: 0
Cursor Pos: 0x9BA
Note ON - ID: 81, Velocity: 80, Δt: 1
Cursor Pos: 0x9BD
Note ON - ID: 77, Velocity: 80, Δt: 0
Cursor Pos: 0x9C0
Note OFF/ON - ID: 81, Velocity: 0, Δt: 159
Cursor Pos: 0x9C4
Note OFF/ON - ID: 77, Velocity: 0, Δt: 0
Cursor Pos: 0x9C7
Note ON - ID: 81, Velocity: 80, Δt: 1
Cursor Pos: 0x9CA
Note ON - ID: 77, Velocity: 80, Δt: 0
Cursor Pos: 0x9CD
Note OFF/ON - ID: 81, Velocity: 0, Δt: 159
Cursor Pos: 0x9D1
Note OFF/ON - ID: 77, Velocity: 0, Δt: 0
Cursor Pos: 0x9D4
Note ON - ID: 81, Velocity: 80, Δt: 1
Cursor Pos: 0x9D7
Note ON - ID: 77, Velocity: 80, Δt: 0
Cursor Pos: 0x9DA
Note OFF/ON - ID: 81, Velocity: 0, Δt: 159
Cursor Pos: 0x9DE
Note OFF/ON - ID: 77, Velocity: 0, Δt: 0
Cursor Pos: 0x9E1
Note ON - ID: 79, Velocity: 80, Δt: 1
Cursor Pos: 0x9E4
Note ON - ID: 71, Velocity: 80, Δt: 0
Cursor Pos: 0x9E7
Note OFF/ON - ID: 79, Velocity: 0, Δt: 159
Cursor Pos: 0x9EB
Note OFF/ON - ID: 71, Velocity: 0, Δt: 0
Cursor Pos: 0x9EE
Note ON - ID: 77, Velocity: 80, Δt: 1
Cursor Pos: 0x9F1
Note OFF/ON - ID: 77, Velocity: 0, Δt: 159
Cursor Pos: 0x9F5
Note ON - ID: 76, Velocity: 80, Δt: 1
Cursor Pos: 0x9F8
Note OFF/ON - ID: 76, Velocity: 0, Δt: 119
Cursor Pos: 0x9FB
Note ON - ID: 72, Velocity: 80, Δt: 1
Cursor Pos: 0x9FE
Note OFF/ON - ID: 72, Velocity: 0, Δt: 119
Cursor Pos: 0xA01
Note ON - ID: 69, Velocity: 80, Δt: 121
Cursor Pos: 0xA04
Note OFF/ON - ID: 69, Velocity: 0, Δt: 119
Cursor Pos: 0xA07
Note ON - ID: 67, Velocity: 80, Δt: 1
Cursor Pos: 0xA0A
Note OFF/ON - ID: 67, Velocity: 0, Δt: 119
Cursor Pos: 0xA0D
Note ON - ID: 60, Velocity: 80, Δt: 121
Cursor Pos: 0xA10
Note OFF/ON - ID: 60, Velocity: 0, Δt: 119
Cursor Pos: 0xA13
Note ON - ID: 76, Velocity: 80, Δt: 121
Cursor Pos: 0xA16
Note OFF/ON - ID: 76, Velocity: 0, Δt: 119
Cursor Pos: 0xA19
Note ON - ID: 72, Velocity: 80, Δt: 1
Cursor Pos: 0xA1C
Note OFF/ON - ID: 72, Velocity: 0, Δt: 119
Cursor Pos: 0xA1F
Note ON - ID: 67, Velocity: 80, Δt: 121
Cursor Pos: 0xA22
Note OFF/ON - ID: 67, Velocity: 0, Δt: 239
Cursor Pos: 0xA26
Note ON - ID: 68, Velocity: 80, Δt: 121
Cursor Pos: 0xA29
Note OFF/ON - ID: 68, Velocity: 0, Δt: 239
Cursor Pos: 0xA2D
Note ON - ID: 69, Velocity: 80, Δt: 1
Cursor Pos: 0xA30
Note OFF/ON - ID: 69, Velocity: 0, Δt: 119
Cursor Pos: 0xA33
Note ON - ID: 77, Velocity: 80, Δt: 1
Cursor Pos: 0xA36
Note OFF/ON - ID: 77, Velocity: 0, Δt: 119
Cursor Pos: 0xA39
Note ON - ID: 77, Velocity: 80, Δt: 121
Cursor Pos: 0xA3C
Note OFF/ON - ID: 77, Velocity: 0, Δt: 119
Cursor Pos: 0xA3F
Note ON - ID: 69, Velocity: 80, Δt: 1
Cursor Pos: 0xA42
Note OFF/ON - ID: 69, Velocity: 0, Δt: 119
Cursor Pos: 0xA45
Note ON - ID: 60, Velocity: 80, Δt: 121
Cursor Pos: 0xA48
Note OFF/ON - ID: 60, Velocity: 0, Δt: 119
Cursor Pos: 0xA4B
Note ON - ID: 71, Velocity: 80, Δt: 121
Cursor Pos: 0xA4E
Note ON - ID: 67, Velocity: 80, Δt: 0
Cursor Pos: 0xA51
Note OFF/ON - ID: 71, Velocity: 0, Δt: 119
Cursor Pos: 0xA54
Note OFF/ON - ID: 67, Velocity: 0, Δt: 0
Cursor Pos: 0xA57
Note ON - ID: 77, Velocity: 80, Δt: 1
Cursor Pos: 0xA5A
Note ON - ID: 69, Velocity: 80, Δt: 0
Cursor Pos: 0xA5D
Note OFF/ON - ID: 77, Velocity: 0, Δt: 119
Cursor Pos: 0xA60
Note OFF/ON - ID: 69, Velocity: 0, Δt: 0
Cursor Pos: 0xA63
Note ON - ID: 77, Velocity: 80, Δt: 121
Cursor Pos: 0xA66
Note ON - ID: 69, Velocity: 80, Δt: 0
Cursor Pos: 0xA69
Note OFF/ON - ID: 77, Velocity: 0, Δt: 119
Cursor Pos: 0xA6C
Note OFF/ON - ID: 69, Velocity: 0, Δt: 0
Cursor Pos: 0xA6F
Note ON - ID: 77, Velocity: 80, Δt: 1
Cursor Pos: 0xA72
Note ON - ID: 69, Velocity: 80, Δt: 0
Cursor Pos: 0xA75
Note OFF/ON - ID: 77, Velocity: 0, Δt: 159
Cursor Pos: 0xA79
Note OFF/ON - ID: 69, Velocity: 0, Δt: 0
Cursor Pos: 0xA7C
Note ON - ID: 76, Velocity: 80, Δt: 1
Cursor Pos: 0xA7F
Note ON - ID: 67, Velocity: 80, Δt: 0
Cursor Pos: 0xA82
Note OFF/ON - ID: 76, Velocity: 0, Δt: 159
Cursor Pos: 0xA86
Note OFF/ON - ID: 67, Velocity: 0, Δt: 0
Cursor Pos: 0xA89
Note ON - ID: 74, Velocity: 80, Δt: 1
Cursor Pos: 0xA8C
Note ON - ID: 65, Velocity: 80, Δt: 0
Cursor Pos: 0xA8F
Note OFF/ON - ID: 74, Velocity: 0, Δt: 159
Cursor Pos: 0xA93
Note OFF/ON - ID: 65, Velocity: 0, Δt: 0
Cursor Pos: 0xA96
Note ON - ID: 72, Velocity: 80, Δt: 1
Cursor Pos: 0xA99
Note ON - ID: 64, Velocity: 80, Δt: 0
Cursor Pos: 0xA9C
Note OFF/ON - ID: 72, Velocity: 0, Δt: 119
Cursor Pos: 0xA9F
Note OFF/ON - ID: 64, Velocity: 0, Δt: 0
Cursor Pos: 0xAA2
Note ON - ID: 67, Velocity: 80, Δt: 1
Cursor Pos: 0xAA5
Note OFF/ON - ID: 67, Velocity: 0, Δt: 119
Cursor Pos: 0xAA8
Note ON - ID: 67, Velocity: 80, Δt: 121
Cursor Pos: 0xAAB
Note OFF/ON - ID: 67, Velocity: 0, Δt: 119
Cursor Pos: 0xAAE
Note ON - ID: 60, Velocity: 80, Δt: 1
Cursor Pos: 0xAB1
Note OFF/ON - ID: 60, Velocity: 0, Δt: 239
Cursor Pos: 0xAB5
End of track
